<svg width="20" height="20" viewBox="0 0 20 20" fill="none" xmlns="http://www.w3.org/2000/svg">
<path d="M0 2.5C0 1.11929 1.11929 0 2.5 0H17.5C18.8807 0 20 1.11929 20 2.5V17.5C20 18.8807 18.8807 20 17.5 20H2.5C1.11929 20 0 18.8807 0 17.5V2.5Z" fill="#F46F22"/>
<path d="M15.2955 8.17196L9.36063 14.1064C8.92115 14.546 8.20824 14.546 7.76834 14.1064L4.70474 11.0426C4.26509 10.603 4.26509 9.89 4.70474 9.45035C5.14447 9.01062 5.85732 9.01062 6.29686 9.45019L8.56472 11.7181L13.7031 6.57967C14.1428 6.13994 14.8557 6.14028 15.2953 6.57967C15.7349 7.01932 15.7349 7.73207 15.2955 8.17196Z" fill="white"/>
</svg>
