<svg width="20" height="20" viewBox="0 0 20 20" fill="none" xmlns="http://www.w3.org/2000/svg">
<g clip-path="url(#clip0)">
<g clip-path="url(#clip1)">
<path fill-rule="evenodd" clip-rule="evenodd" d="M14.7321 1L13 0L11.2279 3.0694C10.825 3.02355 10.4153 3 10 3C5.45455 3 1.57274 5.82725 0 9.81819C0.85239 11.9812 2.38304 13.8023 4.33001 15.0169L3 17.3205L4.73205 18.3205L14.7321 1ZM6.04139 12.0527L7.27452 9.91682C7.27336 9.88408 7.27277 9.8512 7.27277 9.81818C7.27277 8.77498 7.86058 7.86727 8.72259 7.40868L9.95567 5.27293C7.46698 5.29675 5.45455 7.32385 5.45455 9.81814C5.45455 10.6302 5.66783 11.3927 6.04139 12.0527ZM12.467 8.65523L10.2263 12.5362C11.6253 12.4209 12.7273 11.2465 12.7273 9.81818C12.7273 9.40238 12.6339 9.00811 12.467 8.65523ZM10 14.3636C9.73084 14.3636 9.46711 14.3402 9.21074 14.2952L7.96987 16.4445C8.6272 16.5704 9.30587 16.6364 10 16.6364C14.55 16.6364 18.4273 13.8091 20 9.81819C19.054 7.41747 17.274 5.43784 15.0153 4.2414L13.482 6.89722C14.1456 7.68735 14.5455 8.70636 14.5455 9.81819C14.5455 12.3273 12.5091 14.3636 10 14.3636Z" fill="#9E9E9E"/>
</g>
</g>
<defs>
<clipPath id="clip0">
<rect width="20" height="20" fill="white"/>
</clipPath>
<clipPath id="clip1">
<rect width="20" height="20" fill="white" transform="translate(0 -1)"/>
</clipPath>
</defs>
</svg>
