<svg width="20" height="20" viewBox="0 0 20 20" fill="none" xmlns="http://www.w3.org/2000/svg">
<g clip-path="url(#clip0)">
<path fill-rule="evenodd" clip-rule="evenodd" d="M0 9.81819C1.57274 5.82725 5.45455 3 10 3C14.55 3 18.4273 5.82725 20 9.81819C18.4273 13.8091 14.55 16.6364 10 16.6364C5.45455 16.6364 1.57274 13.8091 0 9.81819ZM5.45455 9.81814C5.45455 12.3272 7.49093 14.3636 10 14.3636C12.5091 14.3636 14.5455 12.3273 14.5455 9.81819C14.5455 7.30909 12.5091 5.27271 10 5.27271C7.49093 5.27271 5.45455 7.30905 5.45455 9.81814ZM7.27277 9.81818C7.27277 8.31362 8.49548 7.0909 10 7.0909C11.5045 7.0909 12.7273 8.31362 12.7273 9.81818C12.7273 11.3227 11.5046 12.5455 10 12.5455C8.49548 12.5455 7.27277 11.3227 7.27277 9.81818Z" fill="#9E9E9E"/>
</g>
<defs>
<clipPath id="clip0">
<rect width="20" height="20" fill="white"/>
</clipPath>
</defs>
</svg>
