<svg width="30" height="30" viewBox="0 0 30 30" fill="none" xmlns="http://www.w3.org/2000/svg">
<g clip-path="url(#clip0)">
<path d="M28.125 15C29.1605 15 30.0121 15.8427 29.883 16.8702C29.5688 19.3704 28.6282 21.7619 27.1353 23.8168C25.2733 26.3795 22.6479 28.287 19.6353 29.2658C16.6226 30.2447 13.3774 30.2447 10.3647 29.2658C7.35209 28.287 4.72667 26.3795 2.86474 23.8168C1.00282 21.2541 -2.76928e-07 18.1677 0 15C2.76928e-07 11.8323 1.00282 8.74593 2.86475 6.18322C4.72667 3.62051 7.3521 1.71302 10.3647 0.734152C12.7804 -0.0507371 15.3455 -0.206277 17.8204 0.267533C18.8375 0.462246 19.3758 1.53253 19.0558 2.51738C18.7359 3.50223 17.6775 4.0243 16.6532 3.87213C14.9415 3.61783 13.1854 3.76066 11.5236 4.30061C9.26407 5.03477 7.295 6.46538 5.89856 8.38741C4.50212 10.3095 3.75 12.6242 3.75 15C3.75 17.3758 4.50212 19.6905 5.89856 21.6126C7.295 23.5346 9.26407 24.9652 11.5236 25.6994C13.783 26.4335 16.217 26.4335 18.4764 25.6994C20.7359 24.9652 22.705 23.5346 24.1014 21.6126C25.1285 20.199 25.807 18.5729 26.0941 16.8664C26.2659 15.8452 27.0895 15 28.125 15Z" fill="white"/>
</g>
<defs>
<clipPath id="clip0">
<rect width="30" height="30" fill="white"/>
</clipPath>
</defs>
</svg>
