<svg width="71" height="70" viewBox="0 0 71 70" fill="none" xmlns="http://www.w3.org/2000/svg">
<g clip-path="url(#clip0)">
<path d="M0.5 14C0.5 6.26801 6.76801 0 14.5 0H56.5C64.232 0 70.5 6.26801 70.5 14V56C70.5 63.732 64.232 70 56.5 70H14.5C6.76801 70 0.5 63.732 0.5 56V14Z" fill="white"/>
<path d="M24.4085 23.9111V26.8388C24.9212 26.5452 25.2273 26.0259 25.3105 25.5319C25.3703 25.1755 25.3948 24.3265 24.4085 23.9111Z" fill="#FFEB3B"/>
<path d="M22.1013 20.0394C22.0285 20.4257 22.1206 20.7847 22.3362 20.9536C22.4121 21.0132 22.4958 21.0717 22.5855 21.1292V19.2231C22.3074 19.4364 22.1541 19.7594 22.1013 20.0394Z" fill="#FFEB3B"/>
<path d="M23.5599 11.6667C17.2777 11.6667 12.1667 16.7777 12.1667 23.0599C12.1667 29.3421 17.2777 34.4531 23.5599 34.4531C29.8421 34.4531 34.9531 29.3421 34.9531 23.0599C34.9531 16.7777 29.8421 11.6667 23.5599 11.6667ZM27.1081 25.834C26.8937 27.1096 25.9229 28.4032 24.4085 28.7874V29.4401C24.4085 29.9434 24.0003 30.3516 23.497 30.3516C22.9937 30.3516 22.5856 29.9434 22.5856 29.4401V28.8748C21.8496 28.8112 21.2396 28.6124 20.3748 28.0467C19.9535 27.7712 19.8355 27.2062 20.111 26.785C20.3865 26.3638 20.9515 26.2455 21.3728 26.5212C21.865 26.8431 22.1737 26.9827 22.5856 27.0407V23.1915C22.0034 22.9247 21.5683 22.668 21.2113 22.3879C20.4548 21.7946 20.1095 20.7654 20.3099 19.7016C20.5283 18.5425 21.3352 17.6202 22.4156 17.2948C22.4728 17.2775 22.5294 17.2618 22.5856 17.2468V16.6797C22.5856 16.1764 22.9937 15.7682 23.497 15.7682C24.0003 15.7682 24.4085 16.1764 24.4085 16.6797V17.147C25.2934 17.3002 25.9188 17.7359 26.2218 18.0837C26.5525 18.4632 26.5128 19.039 26.1332 19.3696C25.7557 19.6984 25.1841 19.6612 24.8525 19.2871C24.8317 19.2661 24.6869 19.1266 24.4085 19.0239V21.969C24.5703 22.0291 24.7319 22.0873 24.8906 22.1434C26.4928 22.7097 27.3839 24.193 27.1081 25.834Z" fill="#FFC107"/>
<path d="M57.6951 31.9204L52.9412 31.113C52.3438 30.1844 51.6387 29.3283 50.8357 28.5569C51.2974 26.2474 52.5417 24.1931 54.3874 22.7165L54.6744 22.487C55.1278 22.1243 55.3026 21.5147 55.1104 20.9668C54.9182 20.4188 54.4009 20.0521 53.8203 20.0521H50.1745C46.9485 20.0521 43.9962 21.876 42.5153 24.688C42.0245 24.6358 41.5379 24.6094 41.0599 24.6094H37.6022C36.828 31.6731 30.8263 37.1875 23.5599 37.1875C19.5904 37.1875 15.9988 35.5414 13.43 32.8966C12.6038 34.7164 12.1667 36.7057 12.1667 38.737C12.1667 43.1024 14.1983 47.2194 17.6354 49.8909V56.9662C17.6354 57.7212 18.2476 58.3334 19.0026 58.3334H24.4714C25.0598 58.3334 25.5822 57.9568 25.7684 57.3985L27.2797 52.8646H40.0745L41.5858 57.3985C41.7719 57.9568 42.2944 58.3334 42.8828 58.3334H48.3516C49.1066 58.3334 49.7188 57.7212 49.7188 56.9662V49.8911C51.5988 48.4308 53.0693 46.5335 54.0155 44.3448L57.9796 42.7385C58.4956 42.5293 58.8333 42.0282 58.8333 41.4714V33.2683C58.8333 32.6015 58.3525 32.0321 57.6951 31.9204ZM46.9844 35.0912C46.2293 35.0912 45.6172 34.4791 45.6172 33.724C45.6172 32.9689 46.2293 32.3568 46.9844 32.3568C47.7394 32.3568 48.3516 32.9689 48.3516 33.724C48.3516 34.4791 47.7394 35.0912 46.9844 35.0912Z" fill="#F46F22"/>
</g>
<defs>
<clipPath id="clip0">
<rect width="70" height="70" fill="white" transform="translate(0.5)"/>
</clipPath>
</defs>
</svg>
